<svg xmlns="http://www.w3.org/2000/svg" xmlns:xlink="http://www.w3.org/1999/xlink" width="300" height="300" viewBox="0 0 300 300">
    <circle cx="150" cy="150" r="150" fill="black"/>
    <g fill="transparent" stroke="yellow" stroke-linecap="round" stroke-width="10">
        <path d="M 200 150 A 50 50 0 0 1 103 167.1"/>
        <circle cx="200" cy="150" r="3" fill="yellow"/>
        <circle cx="103" cy="167.1" r="3" fill="yellow"/>
        <path d="M 208.022 183.5 A 67 67 0 0 1 84.005 138.342"/>
        <circle cx="208.022" cy="183.5" r="3" fill="yellow"/>
        <circle cx="84.005" cy="138.342" r="3" fill="yellow"/>
        <path d="M 192 222.744 A 84 84 0 0 1 85.656 95.988"/>
        <circle cx="192" cy="222.744" r="3" fill="yellow"/>
        <circle cx="85.656" cy="95.988" r="3" fill="yellow"/>
        <path d="M 150 251 A 101 101 0 0 1 115.458 55.06"/>
        <circle cx="150" cy="251" r="3" fill="yellow"/>
        <circle cx="115.458" cy="55.06" r="3" fill="yellow"/>
        <path d="M 91 252.188 A 118 118 0 0 1 150 32"/>
        <circle cx="91" cy="252.188" r="3" fill="yellow"/>
        <circle cx="150" cy="32" r="3" fill="yellow"/>
    </g>
</svg>
